<svg width="22592" height="9831" xmlns="http://www.w3.org/2000/svg" xmlns:xlink="http://www.w3.org/1999/xlink" xml:space="preserve" overflow="hidden"><defs><clipPath id="clip0"><rect x="-1689" y="-2385" width="22592" height="9831"/></clipPath></defs><g clip-path="url(#clip0)" transform="translate(1689 2385)"><rect x="-1686.5" y="-2382.5" width="22587" height="9826" stroke="#FFFFFF" stroke-width="4.58333" stroke-miterlimit="8" fill="#FFFFFF"/><rect x="1817.5" y="294.5" width="849" height="2013" stroke="#000000" stroke-width="4.58333" stroke-miterlimit="8" fill="#4472C4" fill-opacity="0.101961"/><text font-family="DengXian,DengXian_MSFontService,sans-serif" font-weight="700" font-size="147" transform="matrix(1 0 0 1 2078.35 481)">IF_ID<tspan font-family="Arial,Arial_MSFontService,sans-serif" font-size="83" x="306.637" y="1796">keep</tspan><tspan font-family="Arial,Arial_MSFontService,sans-serif" font-size="83" x="-163.039" y="1796">flush</tspan></text><path d="M2202.5 2307.5 2251.5 2227.5 2300.5 2307.5Z" stroke="#000000" stroke-width="4.58333" stroke-miterlimit="8" fill="#FFFFFF" fill-rule="evenodd"/><text font-family="Arial,Arial_MSFontService,sans-serif" font-weight="700" font-size="83" transform="matrix(1 0 0 1 2162.82 2210)">CLK<tspan font-size="83" x="-301.711" y="-1468">pc4_i</tspan><tspan font-size="83" x="-275.755" y="-1097">pc_i</tspan><tspan font-size="83" x="-304.074" y="-459">inst_i</tspan><tspan font-size="83" x="230.523" y="-1468">pc4_o</tspan><tspan font-size="83" x="259.252" y="-1097">pc_o</tspan><tspan font-size="83" x="225.934" y="-459">inst_o</tspan></text><path d="M0 3.4375-169.524 3.4375-166.086 0-166.086 3181.56-169.524 3178.12 6982.36 3178.12 6982.36 3184.99-172.961 3184.99-172.961-3.4375 0-3.4375ZM6977.77 3167.81 7005.27 3181.56 6977.77 3195.31Z" fill="#70AD47" transform="matrix(-1 0 0 1 19535.8 2791.5)"/><path d="M0 3.4375-698.414 3.4375-694.976 0-694.976 3880.45-698.414 3877.01 6975.23 3877.01 6975.23 3883.89-701.851 3883.89-701.851-3.4375 0-3.4375ZM6970.64 3866.7 6998.14 3880.45 6970.64 3894.2Z" fill="#70AD47" transform="matrix(-1 0 0 1 19534.6 1707.5)"/><path d="M8002.5 87.0624 8502.43 87.0624 8502.43 5045.23 8495.56 5045.23 8495.56 90.4999 8498.99 93.9374 8002.5 93.9374ZM8512.74 5040.58 8498.99 5068.08 8485.24 5040.58Z" fill="#70AD47"/><path d="M6182.5 1423.5 6858.71 1423.5 6858.71 4762.24" stroke="#70AD47" stroke-width="6.875" stroke-miterlimit="8" fill="none" fill-rule="evenodd"/><path d="M6867.5 4758.06 7764.38 4758.06 7764.38 5042.72 7757.5 5042.72 7757.5 4761.5 7760.94 4764.94 6867.5 4764.94ZM7774.69 5038.13 7760.94 5065.63 7747.19 5038.13Z" fill="#70AD47"/><path d="M6169.5 2016.5 6675.99 2016.5 6675.99 4914.44" stroke="#70AD47" stroke-width="6.875" stroke-miterlimit="8" fill="none" fill-rule="evenodd"/><path d="M6678.5 4913.06 8122.05 4913.06 8122.05 5041.85 8115.18 5041.85 8115.18 4916.5 8118.61 4919.94 6678.5 4919.94ZM8132.36 5037.27 8118.61 5064.77 8104.86 5037.27Z" fill="#70AD47"/><path d="M0 3.4375-382.732 3.4375-379.294 0-379.294 3919.31-382.732 3915.87 6972.71 3915.87 6972.71 3922.74-386.169 3922.74-386.169-3.4375 0-3.4375ZM6968.12 3905.56 6995.62 3919.31 6968.12 3933.06Z" fill="#70AD47" transform="matrix(-1 0 0 1 19532.1 2394.5)"/><path d="M0 3.4375-1911.25 3.4375-1907.81 0-1907.81 3171.58-1911.25 3168.14 2405.59 3168.14 2405.59 3175.01-1914.69 3175.01-1914.69-3.4375 0-3.4375ZM2401 3157.83 2428.5 3171.58 2401 3185.33Z" fill="#70AD47" transform="matrix(-1 0 0 1 14965 2981.5)"/><path d="M0 3.4375-151.23 3.4375-147.792 0-147.792 2142.48-151.23 2139.04 2411.97 2139.04 2411.97 2145.91-154.667 2145.91-154.667-3.4375 0-3.4375ZM2407.39 2128.73 2434.89 2142.48 2407.39 2156.23Z" fill="#70AD47" transform="matrix(-1 0 0 1 14965.4 3649.5)"/><path d="M0 3.4375-612.775 3.4375-609.338 0-609.338 5674.95-612.775 5671.51 2412.21 5671.51 2412.21 5678.38-616.213 5678.38-616.213-3.4375 0-3.4375ZM2407.62 5661.2 2435.12 5674.95 2407.62 5688.7Z" fill="#70AD47" transform="matrix(-1 0 0 1 14971.6 -301.5)"/><path d="M11887-132.5 11887-1687.46 13557.8-1687.46 13557.8 4794.92 11713.5 4794.92 11716.9 4791.48 11716.9 5045.79 11710.1 5045.79 11710.1 4788.04 13554.3 4788.04 13550.9 4791.48 13550.9-1684.02 13554.3-1680.59 11890.4-1680.59 11893.8-1684.02 11893.8-132.5ZM11727.2 5041.21 11713.5 5068.71 11699.8 5041.21Z" fill="#70AD47"/><path d="M0 3.4375-199.387 3.4375-195.95 0-195.95 1172.05-199.387 1168.61 2072.85 1168.61 2072.85 2044.7 2065.98 2044.7 2065.98 1172.05 2069.42 1175.49-202.825 1175.49-202.825-3.4375 0-3.4375ZM2083.17 2040.12 2069.42 2067.62 2055.67 2040.12Z" fill="#70AD47" transform="matrix(-1 0 0 1 13194.9 2996.5)"/><rect x="-987.5" y="1287.5" width="615" height="843" stroke="#000000" stroke-width="4.58333" stroke-miterlimit="8" fill="#4472C4" fill-opacity="0.101961"/><text font-family="DengXian,DengXian_MSFontService,sans-serif" font-weight="700" font-size="147" transform="matrix(1 0 0 1 -769.202 1582)">PC</text><path d="M-851.5 2130.5-802.5 2050.5-753.5 2130.5Z" stroke="#000000" stroke-width="4.58333" stroke-miterlimit="8" fill="#FFFFFF" fill-rule="evenodd"/><text font-family="Arial,Arial_MSFontService,sans-serif" font-weight="700" font-size="83" transform="matrix(1 0 0 1 -893.714 2033)">CLK<tspan font-size="83" x="-22.207" y="-282">npc</tspan><tspan font-size="83" x="375.734" y="-282">pc</tspan><tspan font-size="83" x="258.832" y="57">keep</tspan><tspan font-size="83" x="436.781" y="244">1bit</tspan></text><rect x="339.5" y="293.5" width="891" height="568" stroke="#000000" stroke-width="4.58333" stroke-miterlimit="8" fill="#4472C4" fill-opacity="0.101961"/><text font-family="DengXian,DengXian_MSFontService,sans-serif" font-weight="700" font-size="147" transform="matrix(1 0 0 1 640.285 626)">NPC<tspan font-family="Arial,Arial_MSFontService,sans-serif" font-size="83" x="75.8207" y="-156">npc_change</tspan><tspan font-family="Arial,Arial_MSFontService,sans-serif" font-size="83" x="395.828" y="116">pc4</tspan><tspan font-family="Arial,Arial_MSFontService,sans-serif" font-size="83" x="-255.006" y="-156">npc</tspan><tspan font-family="Arial,Arial_MSFontService,sans-serif" font-size="83" x="-260.622" y="116">pc</tspan><tspan font-family="Arial,Arial_MSFontService,sans-serif" font-size="83" x="132.291" y="-238">op</tspan></text><rect x="327.5" y="1450.5" width="1027" height="543" stroke="#000000" stroke-width="4.58333" stroke-miterlimit="8" fill="#4472C4" fill-opacity="0.101961"/><text font-family="DengXian,DengXian_MSFontService,sans-serif" font-weight="700" font-size="147" transform="matrix(1 0 0 1 650.193 1770)">IROM<tspan font-family="Arial,Arial_MSFontService,sans-serif" font-size="83" x="-289.838" y="-19">adr</tspan><tspan font-family="Arial,Arial_MSFontService,sans-serif" font-size="83" x="509.495" y="-19">inst</tspan></text><path d="M3.5623e-06-3.4375 673.582-3.4368 673.582 3.4382-3.5623e-06 3.4375ZM668.998-13.7493 696.498 0.000721785 668.998 13.7507Z" transform="matrix(1 0 0 -1 -368.5 1713.5)"/><path d="M0-3.4375 361.342-3.4375 361.342 1009.57 357.904 1006.14 692.89 1006.14 692.89 1013.01 354.467 1013.01 354.467 0 357.904 3.4375 0 3.4375ZM688.307 995.823 715.807 1009.57 688.307 1023.32Z" transform="matrix(1 0 0 -1 -368.5 1711.07)"/><path d="M0-3.4375 1676.5-3.4375 1676.5 1282.55 1363.58 1282.55 1363.58 1275.68 1673.06 1275.68 1669.62 1279.12 1669.62 0 1673.06 3.4375 0 3.4375ZM1368.17 1292.87 1340.67 1279.12 1368.17 1265.37Z" transform="matrix(-1 1.22465e-16 1.22465e-16 1 353.167 429.5)"/><path d="M2.09695e-06-3.4375 568.688-3.43715 568.688 3.43785-2.09695e-06 3.4375ZM564.104-13.7497 591.604 0.000360892 564.104 13.7503Z" transform="matrix(1 0 0 -1 1230.5 712.5)"/><path d="M0-3.4375 362.064-3.4375 362.064 637.708 358.627 634.271 2171.32 634.271 2171.32 641.146 355.189 641.146 355.189 0 358.627 3.4375 0 3.4375ZM2166.74 623.958 2194.24 637.708 2166.74 651.458Z" transform="matrix(1 0 0 -1 -368.5 1713.21)"/><path d="M2.65102e-06-3.4375 445.042-3.43716 445.042 3.43784-2.65102e-06 3.4375ZM440.459-13.7497 467.959 0.000360892 440.459 13.7503Z" transform="matrix(1 0 0 -1 1354.5 1721.5)"/><rect x="3569.5" y="2732.5" width="1081" height="502" stroke="#000000" stroke-width="4.58333" stroke-miterlimit="8" fill="#4472C4" fill-opacity="0.101961"/><text font-family="DengXian,DengXian_MSFontService,sans-serif" font-weight="700" font-size="147" transform="matrix(1 0 0 1 3945.67 3032)">SEXT<tspan font-family="Arial,Arial_MSFontService,sans-serif" font-size="83" x="-348.672" y="-19">din</tspan><tspan font-family="Arial,Arial_MSFontService,sans-serif" font-size="83" x="545.613" y="-23">ext</tspan><tspan font-family="Arial,Arial_MSFontService,sans-serif" font-size="83" x="87.5381" y="-200">op</tspan><tspan font-family="Arial,Arial_MSFontService,sans-serif" font-size="83" x="273.779" y="-402">3bit</tspan></text><path d="M0-3.4375 415.102-3.4375 415.102 1787.97 411.665 1784.53 800.412 1784.53 800.412 1791.4 408.227 1791.4 408.227 0 411.665 3.4375 0 3.4375ZM795.829 1774.22 823.329 1787.97 795.829 1801.72Z" transform="matrix(1 0 0 -1 2665.5 1721.47)"/><path d="M3.43743-0.0223763 14.9638 1770.65 8.08895 1770.69-3.43743 0.0223763ZM25.2463 1766 11.6756 1793.59-2.25313 1766.18Z" fill="#ED7D31" transform="matrix(-1 0 0 1 4096.18 942.5)"/><path d="M3486.5-815.163C3486.5-924.701 3575.3-1013.5 3684.84-1013.5L4478.16-1013.5C4587.7-1013.5 4676.5-924.701 4676.5-815.163L4676.5 750.163C4676.5 859.701 4587.7 948.5 4478.16 948.5L3684.84 948.5C3575.3 948.5 3486.5 859.701 3486.5 750.163Z" stroke="#000000" stroke-width="4.58333" stroke-miterlimit="8" fill="#4472C4" fill-rule="evenodd" fill-opacity="0.101961"/><text font-family="DengXian,DengXian_MSFontService,sans-serif" font-weight="700" font-size="147" transform="matrix(1 0 0 1 3626.95 -776)">CONTROLLER<tspan font-family="Arial,Arial_MSFontService,sans-serif" font-size="83" x="-67.6121" y="739">inst</tspan><tspan font-family="Arial,Arial_MSFontService,sans-serif" font-size="83" x="312.519" y="1681">sext_op</tspan><tspan font-family="Arial,Arial_MSFontService,sans-serif" font-size="83" x="736.845" y="309">wd_sel</tspan><tspan font-family="Arial,Arial_MSFontService,sans-serif" font-size="83" x="746.012" y="507">alu_op</tspan><tspan font-family="Arial,Arial_MSFontService,sans-serif" font-size="83" x="688.487" y="703">alub_sel</tspan><tspan font-family="Arial,Arial_MSFontService,sans-serif" font-size="83" x="803.07" y="899">rf_we</tspan><tspan font-family="Arial,Arial_MSFontService,sans-serif" font-size="83" x="660.987" y="1093">dram_we</tspan><tspan font-family="Arial,Arial_MSFontService,sans-serif" font-size="83" x="743.487" y="1286">branch</tspan><tspan font-family="Arial,Arial_MSFontService,sans-serif" font-size="83" x="818.81" y="1484">jump</tspan></text><rect x="5249.5" y="1136.5" width="926" height="1156" stroke="#000000" stroke-width="4.58333" stroke-miterlimit="8" fill="#4472C4" fill-opacity="0.101961"/><text font-family="DengXian,DengXian_MSFontService,sans-serif" font-weight="700" font-size="147" transform="matrix(1 0 0 1 5629.46 1763)">RF</text><path d="M5655.5 2291.5 5704.5 2210.5 5753.5 2291.5Z" stroke="#000000" stroke-width="4.58333" stroke-miterlimit="8" fill="#FFFFFF" fill-rule="evenodd"/><text font-family="Arial,Arial_MSFontService,sans-serif" font-weight="700" font-size="83" transform="matrix(1 0 0 1 5623.24 2184)">CLK<tspan font-size="83" x="-341" y="-731">rR1</tspan><tspan font-size="83" x="-341" y="-431">rR2</tspan><tspan font-size="83" x="-327.21" y="-147">wR</tspan><tspan font-size="83" x="364.503" y="-731">rD1</tspan><tspan font-size="83" x="363.471" y="-138">rD2</tspan><tspan font-size="83" x="270.603" y="72">wD</tspan><tspan font-size="83" x="25.6665" y="-940">we</tspan></text><path d="M2665.5 1718.06 3081.83 1718.06 3081.83 2982.92 3078.4 2979.48 3541.71 2979.48 3541.71 2986.35 3074.96 2986.35 3074.96 1721.5 3078.4 1724.94 2665.5 1724.94ZM3537.13 2969.17 3564.63 2982.92 3537.13 2996.67Z"/><path d="M0-3.4375 2170.38-3.4375 2170.38 297.824 2166.95 294.386 2561.46 294.386 2561.46 301.261 2163.51 301.261 2163.51 0 2166.95 3.4375 0 3.4375ZM2556.88 284.074 2584.38 297.824 2556.88 311.574Z" transform="matrix(1 0 0 -1 2665.5 1721.32)"/><path d="M2665.5 1718.06 3961.13 1718.06 3961.13 1723.21 3957.69 1719.77 5226.96 1719.77 5226.96 1726.65 3954.25 1726.65 3954.25 1721.5 3957.69 1724.94 2665.5 1724.94ZM5222.38 1709.46 5249.88 1723.21 5222.38 1736.96Z"/><path d="M4676.5-499.937 6962.33-499.937 6962.33-493.062 4676.5-493.062ZM6957.74-510.25 6985.24-496.5 6957.74-482.75Z" fill="#ED7D31"/><path d="M4672.5-301.937 6962.37-301.937 6962.37-295.062 4672.5-295.062ZM6957.79-312.25 6985.29-298.5 6957.79-284.75Z" fill="#ED7D31"/><path d="M4679.5-105.937 6965.32-105.937 6965.32-99.0621 4679.5-99.0624ZM6960.74-116.25 6988.24-102.5 6960.74-88.7496Z" fill="#ED7D31"/><path d="M0.00487094-3.4375 2285.83-0.198476 2285.82 6.67652-0.00487094 3.4375ZM2281.26-10.5175 2308.74 3.27149 2281.22 16.9825Z" fill="#ED7D31" transform="matrix(1 0 0 -1 4679.5 93.7714)"/><path d="M4679.5 284.062 6962.73 284.063 6962.73 290.938 4679.5 290.937ZM6958.15 273.75 6985.65 287.5 6958.15 301.25Z" fill="#ED7D31"/><path d="M0.0032138-3.4375 2285.84-1.30042 2285.83 5.57458-0.0032138 3.4375ZM2281.25-11.6172 2308.74 2.1585 2281.23 15.8828Z" fill="#ED7D31" transform="matrix(1 0 0 -1 4679.5 480.659)"/><path d="M4676.5 675.063 6962.33 676.312 6962.32 683.187 4676.5 681.938ZM6957.75 665.997 6985.24 679.762 6957.73 693.497Z" fill="#ED7D31"/><path d="M5249.5 2736.5 5672.5 2842.25 5672.5 3485.75 5249.5 3591.5Z" stroke="#000000" stroke-width="4.58333" stroke-miterlimit="8" fill="#4472C4" fill-rule="evenodd" fill-opacity="0.101961"/><text font-family="Arial,Arial_MSFontService,sans-serif" font-weight="700" font-size="73" transform="matrix(1 0 0 1 5346.22 3180)">ADDER</text><path d="M4644.5 2976.06 5227.03 2976.06 5227.03 2982.94 4644.5 2982.94ZM5222.45 2965.75 5249.95 2979.5 5222.45 2993.25Z"/><path d="M2663.5 1081.06 2954.45 1081.06 2954.45 3355.89 2951.01 3352.45 5227.04 3352.45 5227.04 3359.32 2947.57 3359.32 2947.57 1084.5 2951.01 1087.94 2663.5 1087.94ZM5222.45 3342.14 5249.95 3355.89 5222.45 3369.64Z"/><path d="M0-3.4375 292.098-3.4375 292.098 360.919 288.66 357.482 2314.42 357.482 2314.42 364.357 285.223 364.357 285.223 0 288.66 3.4375 0 3.4375ZM2309.84 347.169 2337.34 360.919 2309.84 374.669Z" transform="matrix(1 0 0 -1 4650.5 2983.42)"/><path d="M2665.5 709.063 2968.88 709.063 2968.88 1022.18 2965.45 1018.74 6972.03 1018.74 6972.03 1025.61 2962.01 1025.61 2962.01 712.5 2965.45 715.938 2665.5 715.938ZM6967.44 1008.43 6994.94 1022.18 6967.44 1035.93Z"/><path d="M2665.5 1718.06 4835.05 1718.06 4835.05 2407.95 4831.61 2404.51 6967.98 2404.51 6967.98 2411.39 4828.17 2411.39 4828.17 1721.5 4831.61 1724.94 2665.5 1724.94ZM6963.39 2394.2 6990.89 2407.95 6963.39 2421.7Z"/><path d="M0.0076471-3.43749 789.199-1.68184 789.184 5.19314-0.0076471 3.43749ZM784.638-12.0045 812.107 1.80663 784.577 15.4954Z" transform="matrix(1 0 0 -1 6182.5 1424.31)"/><path d="M6169.51 2013.06 6968.8 2014.78 6968.79 2021.65 6169.49 2019.94ZM6964.24 2004.45 6991.71 2018.26 6964.18 2031.95Z"/><path d="M0-3.4375 659.873-3.4375 659.873 281.024 656.436 277.587 1289.95 277.587 1289.95 284.462 652.998 284.462 652.998 0 656.436 3.4375 0 3.4375ZM1285.37 267.274 1312.87 281.024 1285.37 294.774Z" transform="matrix(1 0 0 -1 5672.5 3163.52)"/><rect x="6985.5" y="-987.5" width="1018" height="4870" stroke="#000000" stroke-width="4.58333" stroke-miterlimit="8" fill="#4472C4" fill-opacity="0.101961"/><text font-family="DengXian,DengXian_MSFontService,sans-serif" font-weight="700" font-size="147" transform="matrix(1 0 0 1 7305.74 -693)">ID_EX<tspan font-family="Arial,Arial_MSFontService,sans-serif" font-size="83" x="-287.643" y="226">wd_sel_i</tspan><tspan font-family="Arial,Arial_MSFontService,sans-serif" font-size="83" x="-287.643" y="424">alu_op_i</tspan><tspan font-family="Arial,Arial_MSFontService,sans-serif" font-size="83" x="-285.05" y="620">alub_sel_i</tspan><tspan font-family="Arial,Arial_MSFontService,sans-serif" font-size="83" x="-285.05" y="813">rf_we_i</tspan><tspan font-family="Arial,Arial_MSFontService,sans-serif" font-size="83" x="-287.643" y="1010">dram_we_i</tspan><tspan font-family="Arial,Arial_MSFontService,sans-serif" font-size="83" x="-285.05" y="1201">branch_i</tspan><tspan font-family="Arial,Arial_MSFontService,sans-serif" font-size="83" x="-287.643" y="1402">jump_i</tspan><tspan font-family="Arial,Arial_MSFontService,sans-serif" font-size="83" x="292.181" y="226">wd_sel_o</tspan><tspan font-family="Arial,Arial_MSFontService,sans-serif" font-size="83" x="304.851" y="424">alu_op_o</tspan><tspan font-family="Arial,Arial_MSFontService,sans-serif" font-size="83" x="236.703" y="620">alub_sel_o</tspan><tspan font-family="Arial,Arial_MSFontService,sans-serif" font-size="83" x="351.314" y="813">rf_we_o</tspan><tspan font-family="Arial,Arial_MSFontService,sans-serif" font-size="83" x="209.187" y="1008">dram_we_o</tspan><tspan font-family="Arial,Arial_MSFontService,sans-serif" font-size="83" x="298.606" y="1201">branch_o</tspan><tspan font-family="Arial,Arial_MSFontService,sans-serif" font-size="83" x="376.454" y="1401">jump_o</tspan><tspan font-family="Arial,Arial_MSFontService,sans-serif" font-size="83" x="-287.643" y="3605">pc_imm_i</tspan><tspan font-family="Arial,Arial_MSFontService,sans-serif" font-size="83" x="-285.05" y="3345">imm_i</tspan><tspan font-family="Arial,Arial_MSFontService,sans-serif" font-size="83" x="-278.365" y="1744">pc4_i</tspan><tspan font-family="Arial,Arial_MSFontService,sans-serif" font-size="83" x="-282.487" y="3131">wR_i</tspan><tspan font-family="Arial,Arial_MSFontService,sans-serif" font-size="83" x="-278.558" y="2145">rD1_i</tspan><tspan font-family="Arial,Arial_MSFontService,sans-serif" font-size="83" x="-281.404" y="2740">rD2_i</tspan><tspan font-family="Arial,Arial_MSFontService,sans-serif" font-size="83" x="251.626" y="3605">pc_imm_o</tspan><tspan font-family="Arial,Arial_MSFontService,sans-serif" font-size="83" x="393.372" y="3344">imm_o</tspan><tspan font-family="Arial,Arial_MSFontService,sans-serif" font-size="83" x="352.796" y="1747">pc4_o</tspan><tspan font-family="Arial,Arial_MSFontService,sans-serif" font-size="83" x="439.256" y="3133">wR_o</tspan><tspan font-family="Arial,Arial_MSFontService,sans-serif" font-size="83" x="425.455" y="2136">rD1_o</tspan><tspan font-family="Arial,Arial_MSFontService,sans-serif" font-size="83" x="432.784" y="2744">rD2_o</tspan><tspan font-family="Arial,Arial_MSFontService,sans-serif" font-size="83" x="-177.688" y="4549">flush</tspan></text><path d="M7442.5 3877.5 7492 3797.5 7541.5 3877.5Z" stroke="#000000" stroke-width="4.58333" stroke-miterlimit="8" fill="#FFFFFF" fill-rule="evenodd"/><text font-family="Arial,Arial_MSFontService,sans-serif" font-weight="700" font-size="83" transform="matrix(1 0 0 1 7403.15 3781)">CLK<tspan font-size="83" x="-385.021" y="-647">rD1_op, 1bit</tspan><tspan font-size="83" x="-388.381" y="-506">rD2_op, 1bit</tspan><tspan font-size="83" x="-379.897" y="-348">rD1_forward, 32bit</tspan><tspan font-size="83" x="-385.054" y="-188">rD2_forward, 32bit</tspan></text><path d="M8638.5 1935.5 9061.5 2041.25 9061.5 2685.75 8638.5 2791.5Z" stroke="#000000" stroke-width="4.58333" stroke-miterlimit="8" fill="#4472C4" fill-rule="evenodd" fill-opacity="0.101961"/><text font-family="Arial,Arial_MSFontService,sans-serif" font-weight="700" font-size="73" transform="matrix(1 0 0 1 8769.73 2359)">ALU_<tspan font-size="73" x="14.0254" y="88">MUX</tspan><tspan font-size="83" x="-94.4775" y="-171">0</tspan><tspan font-size="83" x="-91.5098" y="292">1</tspan><tspan font-size="83" x="205.682" y="-489">alub_sel</tspan><tspan font-size="83" x="535.682" y="-489">, </tspan><tspan font-size="83" x="308.807" y="-390">1bit</tspan></text><path d="M7998.5 2618.06 8622.34 2618.31 8622.33 2625.18 7998.5 2624.94ZM8617.76 2607.99 8645.25 2621.75 8617.75 2635.49Z"/><path d="M8006.5 2016.06 8328.16 2016.06 8328.16 2156.22 8324.73 2152.78 8620.04 2152.78 8620.04 2159.65 8321.29 2159.65 8321.29 2019.5 8324.73 2022.94 8006.5 2022.94ZM8615.45 2142.47 8642.95 2156.22 8615.45 2169.97Z"/><path d="M8002.5-105.937 8853.6-105.937 8853.6 1965.29 8846.72 1965.29 8846.72-102.5 8850.16-99.0624 8002.5-99.0624ZM8863.91 1960.69 8850.16 1988.19 8836.41 1960.69Z" fill="#ED7D31"/><path d="M10160.5 1211.5 10778.5 1366 10778.5 2599 10160.5 2753.5Z" stroke="#000000" stroke-width="4.58333" stroke-miterlimit="8" fill="#4472C4" fill-rule="evenodd" fill-opacity="0.101961"/><text font-family="Arial,Arial_MSFontService,sans-serif" font-weight="700" font-size="147" transform="matrix(1 0 0 1 10322.5 2084)">ALU<tspan font-size="83" x="-122.019" y="-358">A</tspan><tspan font-size="83" x="-119.429" y="314">B</tspan><tspan font-size="83" x="373.116" y="322">C</tspan><tspan font-size="83" x="81.1611" y="-357">zero,sgn</tspan><tspan font-size="83" x="231.489" y="-851">4bit</tspan><tspan font-size="83" x="93.0625" y="-671">op</tspan></text><path d="M9061.52 2360.06 10147.3 2365.29 10147.2 2372.16 9061.48 2366.94ZM10142.7 2354.95 10170.2 2368.83 10142.6 2382.45Z"/><path d="M7998.5 1411.06 9914.03 1411.06 9914.03 1697.48 9910.6 1694.04 10144.5 1694.04 10144.5 1700.92 9907.16 1700.92 9907.16 1414.5 9910.6 1417.94 7998.5 1417.94ZM10140 1683.73 10167.5 1697.48 10140 1711.23Z"/><path d="M8006.5-301.937 10473.3-301.937 10473.3 1265.22 10466.5 1265.22 10466.5-298.5 10469.9-295.062 8006.5-295.062ZM10483.6 1260.64 10469.9 1288.14 10456.1 1260.64Z" fill="#ED7D31"/><path d="M0.00343152-3.4375 2738.41-0.70386 2738.4 6.17114-0.00343152 3.4375ZM2733.81-11.0209 2761.3 2.7565 2733.79 16.479Z" fill="#ED7D31" transform="matrix(1 0 0 -1 8009.5 478.256)"/><path d="M0.00192896-3.4375 2744.45-1.89745 2744.44 4.97755-0.00192896 3.4375ZM2739.89-12.2125 2767.38 1.55292 2739.87 15.2875Z" fill="#ED7D31" transform="matrix(1 0 0 -1 8009.5 678.053)"/><path d="M0-3.4375 443.182-3.4375 443.182 754.838 436.307 754.838 436.307 0 439.744 3.4375 0 3.4375ZM453.494 750.255 439.744 777.755 425.994 750.255Z" transform="matrix(1 0 0 -1 10776.5 1697.25)"/><path d="M0-3.4375 845.27-3.4375 845.27 1433.76 838.395 1433.76 838.395 0 841.832 3.4375 0 3.4375ZM855.582 1429.18 841.832 1456.68 828.082 1429.18Z" transform="matrix(1 0 0 -1 10776.5 2376.18)"/><path d="M0-3.4375 4041.79-3.4375 4041.79 1940.54 4034.92 1940.54 4034.92 0 4038.35 3.4375 0 3.4375ZM4052.1 1935.96 4038.35 1963.46 4024.6 1935.96Z" transform="matrix(1 0 0 -1 7998.5 2882.96)"/><path d="M10776.5 43.6709C10776.5-53.6255 10855.4-132.5 10952.7-132.5L12211.3-132.5C12308.6-132.5 12387.5-53.6255 12387.5 43.6709L12387.5 748.329C12387.5 845.626 12308.6 924.5 12211.3 924.5L10952.7 924.5C10855.4 924.5 10776.5 845.626 10776.5 748.329Z" stroke="#000000" stroke-width="4.58333" stroke-miterlimit="8" fill="#4472C4" fill-rule="evenodd" fill-opacity="0.101961"/><text font-family="DengXian,DengXian_MSFontService,sans-serif" font-weight="700" font-size="147" transform="matrix(1 0 0 1 11072 357)">NPC_CONTROL<tspan font-family="Arial,Arial_MSFontService,sans-serif" font-size="83" x="-268.831" y="148">branch</tspan><tspan font-family="Arial,Arial_MSFontService,sans-serif" font-size="83" x="-262.749" y="349">jump</tspan><tspan font-family="Arial,Arial_MSFontService,sans-serif" font-size="83" x="-2.04004" y="525">zero,sgn</tspan><tspan font-family="Arial,Arial_MSFontService,sans-serif" font-size="83" x="440.666" y="525">alu_c</tspan><tspan font-family="Arial,Arial_MSFontService,sans-serif" font-size="83" x="809.004" y="525">pc_imm</tspan><tspan font-family="Arial,Arial_MSFontService,sans-serif" font-size="83" x="4.09473" y="-394">npc_change</tspan><tspan font-family="Arial,Arial_MSFontService,sans-serif" font-size="83" x="671.482" y="-394">npc_op</tspan></text><path d="M11887.2-132.5 11887.2-1684.03 11890.6-1680.6 823.5-1680.6 826.937-1684.03 826.937 269.339 820.062 269.339 820.062-1687.47 11894.1-1687.47 11894.1-132.5ZM837.25 264.757 823.5 292.257 809.75 264.757Z" fill="#ED7D31"/><path d="M11313.3-132.5 11313.3-1396.61 11316.8-1393.18 1528.95-1393.18 1532.39-1396.61 1532.39 444.721 1253.42 444.721 1253.42 437.846 1528.95 437.846 1525.51 441.283 1525.51-1400.05 11320.2-1400.05 11320.2-132.5ZM1258 455.033 1230.5 441.283 1258 427.533Z"/><path d="M12641.5 2402.5 13194.5 2540.75 13194.5 3453.25 12641.5 3591.5Z" stroke="#000000" stroke-width="4.58333" stroke-miterlimit="8" fill="#4472C4" fill-rule="evenodd" fill-opacity="0.101961"/><text font-family="Arial,Arial_MSFontService,sans-serif" font-weight="700" font-size="92" transform="matrix(1 0 0 1 12825.1 2957)">WD_<tspan font-size="92" x="-25.4834" y="110">MUX1</tspan><tspan font-size="83" x="-141.883" y="-211">0</tspan><tspan font-size="83" x="-141.883" y="402">3</tspan><tspan font-size="83" x="-143.25" y="2">1</tspan><tspan font-size="83" x="-144.5" y="212">2</tspan><tspan font-size="83" x="-711.088" y="-279">ALU.C,</tspan><tspan font-size="83" x="-413.171" y="-279">32bit</tspan><tspan font-size="83" x="-791.869" y="153">NPC.pc4, 32bit</tspan><tspan font-size="83" x="-806.765" y="338">SEXT.ext</tspan><tspan font-size="83" x="-449.265" y="338">, 32bit</tspan><tspan font-size="83" x="181.805" y="-651">wd_sel_EX</tspan><tspan font-size="83" x="612.638" y="-651">, </tspan><tspan font-size="83" x="335.347" y="-552">2bit</tspan></text><path d="M8002.5 1021.06 9682.38 1021.06 9682.38 3140.63 9678.94 3137.19 12625 3137.19 12625 3144.07 9675.5 3144.07 9675.5 1024.5 9678.94 1027.94 8002.5 1027.94ZM12620.4 3126.88 12647.9 3140.63 12620.4 3154.38Z"/><path d="M10776.5 2373.06 11620.7 2373.06 11620.7 2718.45 11617.3 2715.01 12627.6 2715.01 12627.6 2721.89 11613.8 2721.89 11613.8 2376.5 11617.3 2379.94 10776.5 2379.94ZM12623 2704.7 12650.5 2718.45 12623 2732.2Z"/><path d="M7998.5 2618.06 8361.57 2618.06 8361.57 3331.22 8358.13 3327.78 12627.4 3327.78 12627.4 3334.66 8354.69 3334.66 8354.69 2621.5 8358.13 2624.94 7998.5 2624.94ZM12622.8 3317.47 12650.3 3331.22 12622.8 3344.97Z"/><path d="M8002.5-499.937 12921.5-499.937 12921.5 2448 12914.6 2448 12914.6-496.5 12918.1-493.062 8002.5-493.062ZM12931.8 2443.41 12918.1 2470.91 12904.3 2443.41Z" fill="#ED7D31"/><rect x="13947.5" y="-987.5" width="1018" height="5189" stroke="#000000" stroke-width="4.58333" stroke-miterlimit="8" fill="#4472C4" fill-opacity="0.101961"/><text font-family="DengXian,DengXian_MSFontService,sans-serif" font-weight="700" font-size="147" transform="matrix(1 0 0 1 14168.2 -710)">EX_MEM<tspan font-family="Arial,Arial_MSFontService,sans-serif" font-size="83" x="-187.955" y="243">wd_sel_i</tspan><tspan font-family="Arial,Arial_MSFontService,sans-serif" font-size="83" x="-178.743" y="438">rf_we_i</tspan><tspan font-family="Arial,Arial_MSFontService,sans-serif" font-size="83" x="-178.743" y="1820">dram_we_i</tspan><tspan font-family="Arial,Arial_MSFontService,sans-serif" font-size="83" x="391.418" y="243">wd_sel_o</tspan><tspan font-family="Arial,Arial_MSFontService,sans-serif" font-size="83" x="457.589" y="438">rf_we_o</tspan><tspan font-family="Arial,Arial_MSFontService,sans-serif" font-size="83" x="307.322" y="1818">dram_we_o</tspan><tspan font-family="Arial,Arial_MSFontService,sans-serif" font-size="83" x="-178.743" y="2221">alu_c_i</tspan><tspan font-family="Arial,Arial_MSFontService,sans-serif" font-size="83" x="-179.056" y="4386">wR_i</tspan><tspan font-family="Arial,Arial_MSFontService,sans-serif" font-size="83" x="-176.09" y="4651">rD2_i</tspan><tspan font-family="Arial,Arial_MSFontService,sans-serif" font-size="83" x="459.551" y="2219">alu_c_o</tspan><tspan font-family="Arial,Arial_MSFontService,sans-serif" font-size="83" x="542.687" y="4389">wR_o</tspan><tspan font-family="Arial,Arial_MSFontService,sans-serif" font-size="83" x="538.099" y="4655">rD2_o</tspan></text><path d="M14414.5 4201.5 14463.5 4120.5 14512.5 4201.5Z" stroke="#000000" stroke-width="4.58333" stroke-miterlimit="8" fill="#FFFFFF" fill-rule="evenodd"/><text font-family="Arial,Arial_MSFontService,sans-serif" font-weight="700" font-size="83" transform="matrix(1 0 0 1 14374.5 4104)">CLK<tspan font-size="83" x="-385.366" y="-1096">wD_i</tspan><tspan font-size="83" x="336.376" y="-1093">wD_o</tspan></text><path d="M2.08672e-07-3.4375 5922.15-3.43714 5922.15 3.43786-2.08672e-07 3.4375ZM5917.57-13.7496 5945.07 0.000360892 5917.57 13.7504Z" fill="#ED7D31" transform="matrix(1 0 0 -1 8002.5 -496.5)"/><path d="M0-3.4375 2632.23-3.4375 2632.23 388.563 2628.79 385.126 5922.15 385.126 5922.15 392.001 2625.35 392.001 2625.35 0 2628.79 3.4375 0 3.4375ZM5917.57 374.813 5945.07 388.563 5917.57 402.313Z" fill="#ED7D31" transform="matrix(1 0 0 -1 8002.5 90.0632)"/><path d="M8002.5 282.063 9950.49 282.063 9950.49 1079.95 9947.05 1076.51 13933.9 1076.51 13933.9 1083.38 9943.61 1083.38 9943.61 285.5 9947.05 288.938 8002.5 288.938ZM13929.3 1066.2 13956.8 1079.95 13929.3 1093.7Z" fill="#ED7D31"/><path d="M0-3.4375 1593.57-3.4375 1593.57 894.177 1590.13 890.74 3157.34 890.74 3157.34 897.615 1586.69 897.615 1586.69 0 1590.13 3.4375 0 3.4375ZM3152.76 880.427 3180.26 894.177 3152.76 907.927Z" transform="matrix(1 0 0 -1 10776.5 2375.68)"/><path d="M8017.5 2014.06 8141.39 2014.06 8141.39 3911.6 8137.96 3908.16 13937.2 3908.16 13937.2 3915.04 8134.52 3915.04 8134.52 2017.5 8137.96 2020.94 8017.5 2020.94ZM13932.6 3897.85 13960.1 3911.6 13932.6 3925.35Z"/><path d="M7998.5 2407.06 8246.97 2407.06 8246.97 3630.04 8243.53 3626.61 13924.4 3626.61 13924.4 3633.48 8240.09 3633.48 8240.09 2410.5 8243.53 2413.94 7998.5 2413.94ZM13919.8 3616.29 13947.3 3630.04 13919.8 3643.79Z"/><path d="M13194.5 2993.06 13924.6 2994.81 13924.6 3001.68 13194.5 2999.94ZM13920.1 2984.48 13947.5 2998.3 13920 3011.98Z"/><rect x="15804.5" y="1604.5" width="926" height="1156" stroke="#000000" stroke-width="4.58333" stroke-miterlimit="8" fill="#4472C4" fill-opacity="0.101961"/><text font-family="DengXian,DengXian_MSFontService,sans-serif" font-weight="700" font-size="147" transform="matrix(1 0 0 1 16051.4 2231)">DRAM</text><path d="M16217.5 2758.5 16266.5 2678.5 16315.5 2758.5Z" stroke="#000000" stroke-width="4.58333" stroke-miterlimit="8" fill="#FFFFFF" fill-rule="evenodd"/><text font-family="Arial,Arial_MSFontService,sans-serif" font-weight="700" font-size="83" transform="matrix(1 0 0 1 16188.8 2651)">CLK<tspan font-size="83" x="-351.728" y="-745">adr</tspan><tspan font-size="83" x="-351.728" y="-131">wdin</tspan><tspan font-size="83" x="391.425" y="-440">rd</tspan><tspan font-size="83" x="25.667" y="-945">we</tspan><tspan font-size="83" x="251.96" y="-1138">1bit</tspan></text><path d="M14968.5 1476.06 15390 1476.06 15390 1875.93 15386.6 1872.49 15781.7 1872.49 15781.7 1879.37 15383.1 1879.37 15383.1 1479.5 15386.6 1482.94 14968.5 1482.94ZM15777.1 1862.18 15804.6 1875.93 15777.1 1889.68Z"/><path d="M0-3.4375 418.683-3.4375 418.683 1425.74 415.246 1422.31 807.573 1422.31 807.573 1429.18 411.808 1429.18 411.808 0 415.246 3.4375 0 3.4375ZM802.99 1411.99 830.49 1425.74 802.99 1439.49Z" transform="matrix(1 0 0 -1 14974.5 3916.24)"/><path d="M14963.5 1075.06 16273.6 1075.06 16273.6 1586.89 16266.7 1586.89 16266.7 1078.5 16270.1 1081.94 14963.5 1081.94ZM16283.9 1582.31 16270.1 1609.81 16256.4 1582.31Z" fill="#ED7D31"/><path d="M17606.5 1960.5 18029.5 2066.25 18029.5 2710.75 17606.5 2816.5Z" stroke="#000000" stroke-width="4.58333" stroke-miterlimit="8" fill="#4472C4" fill-rule="evenodd" fill-opacity="0.101961"/><text font-family="Arial,Arial_MSFontService,sans-serif" font-weight="700" font-size="73" transform="matrix(1 0 0 1 17751.4 2384)">WD_<tspan font-size="73" x="-20.3262" y="88">MUX2</tspan><tspan font-size="83" x="-108.504" y="-171">1</tspan><tspan font-size="83" x="-105.535" y="292">other</tspan><tspan font-family="DengXian,DengXian_MSFontService,sans-serif" font-size="83" x="-850.949" y="227">wD_temp</tspan><tspan font-family="DengXian,DengXian_MSFontService,sans-serif" font-size="83" x="-498.033" y="227">, 32bit</tspan><tspan font-family="DengXian,DengXian_MSFontService,sans-serif" font-size="83" x="-844.592" y="-250">DRAM.rd</tspan><tspan font-family="DengXian,DengXian_MSFontService,sans-serif" font-size="83" x="-501.988" y="-250">, 32bit</tspan><tspan font-family="DengXian,DengXian_MSFontService,sans-serif" font-size="83" x="134.232" y="-504">wd_sel_MEM</tspan><tspan font-family="DengXian,DengXian_MSFontService,sans-serif" font-size="83" x="612.045" y="-504">, </tspan><tspan font-family="DengXian,DengXian_MSFontService,sans-serif" font-size="83" x="309.545" y="-405">2bit</tspan></text><path d="M16735.5 2179.06 17587.3 2180.68 17587.3 2187.55 16735.5 2185.94ZM17582.7 2170.36 17610.2 2184.16 17582.7 2197.86Z"/><path d="M0-3.4375 1909.1-3.4375 1909.1 334.54 1905.66 331.102 2625.53 331.102 2625.53 337.977 1902.23 337.977 1902.23 0 1905.66 3.4375 0 3.4375ZM2620.95 320.79 2648.45 334.54 2620.95 348.29Z" transform="matrix(1 0 0 -1 14964.5 2982.04)"/><path d="M14964.5-499.937 17821-499.937 17821 1990.28 17814.2 1990.28 17814.2-496.5 17817.6-493.062 14964.5-493.062ZM17831.4 1985.67 17817.6 2013.17 17803.9 1985.67Z" fill="#ED7D31"/><rect x="18682.5" y="1206.5" width="850" height="2012" stroke="#000000" stroke-width="4.58333" stroke-miterlimit="8" fill="#4472C4" fill-opacity="0.101961"/><text font-family="DengXian,DengXian_MSFontService,sans-serif" font-weight="700" font-size="147" transform="matrix(1 0 0 1 18787.6 1392)">MEM_WB<tspan font-size="83" x="-71.3926" y="338">rf_we_i</tspan><tspan font-size="83" x="429.344" y="342">rf_we_o</tspan><tspan font-size="83" x="-68.8731" y="1415">wR_i</tspan><tspan font-size="83" x="516.078" y="1426">wR_o</tspan></text><path d="M19061.5 3215.5 19111 3135.5 19160.5 3215.5Z" stroke="#000000" stroke-width="4.58333" stroke-miterlimit="8" fill="#FFFFFF" fill-rule="evenodd"/><text font-family="DengXian,DengXian_MSFontService,sans-serif" font-weight="700" font-size="83" transform="matrix(1 0 0 1 19036.2 3115)">CLK<tspan font-size="83" x="-322.365" y="-694">wD_i</tspan><tspan font-size="83" x="256.719" y="-694">wD_o</tspan></text><path d="M18029.5 2385.06 18658.5 2390.76 18658.4 2397.64 18029.5 2391.94ZM18654 2380.41 18681.4 2394.41 18653.7 2407.91Z"/><path d="M0-3.4375 3393.63-3.4375 3393.63 868.861 3390.19 865.424 3698.39 865.424 3698.39 872.299 3386.75 872.299 3386.75 0 3390.19 3.4375 0 3.4375ZM3693.81 855.111 3721.31 868.861 3693.81 882.611Z" transform="matrix(1 0 0 -1 14964.5 3649.36)"/><path d="M14971.5-304.937 18212.9-304.937 18212.9 1704.05 18209.4 1700.61 18660.8 1700.61 18660.8 1707.48 18206 1707.48 18206-301.5 18209.4-298.062 14971.5-298.062ZM18656.2 1690.3 18683.7 1704.05 18656.2 1717.8Z" fill="#ED7D31"/><path d="M19532.3 2390.51 19916.4 2390.51 19916.4 4580.78 5953.06 4580.78 5953.06 2315.41 5959.94 2315.41 5959.94 4577.34 5956.5 4573.9 19913 4573.9 19909.5 4577.34 19909.5 2393.95 19913 2397.39 19532.3 2397.39ZM5942.75 2320 5956.5 2292.5 5970.25 2320Z"/><path d="M19535.3 2787.38 19703.7 2787.38 19703.7 4393.24 5092.37 4393.24 5092.37 2004.06 5240.58 2004.06 5240.58 2010.94 5095.81 2010.94 5099.25 2007.5 5099.25 4389.8 5095.81 4386.36 19700.2 4386.36 19696.8 4389.8 19696.8 2790.82 19700.2 2794.26 19535.3 2794.26ZM5236 1993.75 5263.5 2007.5 5236 2021.25Z"/><path d="M19534.6 1704.02 20232.2 1704.02 20228.8 1707.46 20228.8-2015 20232.2-2011.56 5704.5-2011.56 5707.94-2015 5707.94 1124.59 5701.06 1124.59 5701.06-2018.43 20235.7-2018.43 20235.7 1710.89 19534.6 1710.89ZM5718.25 1120 5704.5 1147.5 5690.75 1120Z" fill="#ED7D31"/><path d="M6579.5 5311.67C6579.5 5172.95 6691.95 5060.5 6830.67 5060.5L12279.3 5060.5C12418 5060.5 12530.5 5172.95 12530.5 5311.67L12530.5 6316.33C12530.5 6455.05 12418 6567.5 12279.3 6567.5L6830.67 6567.5C6691.95 6567.5 6579.5 6455.05 6579.5 6316.33Z" stroke="#000000" stroke-width="4.58333" stroke-miterlimit="8" fill="#4472C4" fill-rule="evenodd" fill-opacity="0.101961"/><text font-family="DengXian,DengXian_MSFontService,sans-serif" font-weight="700" font-size="147" transform="matrix(1 0 0 1 8841.98 5863)">HAZARD_DETECTION<tspan font-size="83" x="413.294" y="-698">wd_sel_EX</tspan><tspan font-size="83" x="-5312.05" y="-5420">rD1_used</tspan><tspan font-size="83" x="-5318.19" y="-5234">rD2_used</tspan><tspan font-size="83" x="-2226.12" y="-479">rD1_used</tspan><tspan font-size="83" x="-2232.27" y="-293">rD2_used</tspan><tspan font-size="83" x="-507.411" y="-702">rf_we_EX</tspan><tspan font-size="83" x="3227.25" y="-463">rf_we_MEM</tspan><tspan font-size="83" x="3290.23" y="-252">rf_we_WB</tspan><tspan font-size="83" x="-1891.82" y="665">keep_PC</tspan><tspan font-size="83" x="-1388.48" y="663">keep_IF_ID</tspan></text><path d="M0 3.4375-605 3.4375-601.563 0-601.563 7671.24-605 7667.81 4417.49 7667.81 4417.49 7674.68-608.438 7674.68-608.438-3.4375 0-3.4375ZM4412.9 7657.49 4440.4 7671.24 4412.9 7684.99Z" fill="#70AD47" transform="matrix(-6.12323e-17 -1 -1 6.12323e-17 7130.74 6567.9)"/><path d="M0 3.4375-481.232 3.4375-477.795 0-477.795 5188.65-481.232 5185.21 4229.76 5185.21 4229.76 5192.08-484.67 5192.08-484.67-3.4375 0-3.4375ZM4225.17 5174.9 4252.67 5188.65 4225.17 5202.4Z" fill="#70AD47" transform="matrix(-6.12323e-17 -1 -1 6.12323e-17 7668.15 6567.17)"/><text font-family="DengXian,DengXian_MSFontService,sans-serif" font-weight="700" font-size="83" transform="matrix(1 0 0 1 8031.47 6526)">flush_IF_ID<tspan font-size="83" x="-1045.56" y="-1365">flush_ID_EX</tspan></text><path d="M0 3.4375-323.117 3.4375-319.679 0-319.679 6231.71-323.117 6228.27 4229.76 6228.27 4229.76 6235.15-326.554 6235.15-326.554-3.4375 0-3.4375ZM4225.17 6217.96 4252.67 6231.71 4225.17 6245.46Z" fill="#70AD47" transform="matrix(-6.12323e-17 -1 -1 6.12323e-17 8246.21 6567.17)"/><path d="M7222.06 5068.03 7222.06 4477.33 7226.66 4477.33 7223.22 4480.76 7223.22 3916.42 7230.1 3916.42 7230.1 4484.2 7225.5 4484.2 7228.94 4480.76 7228.94 5068.03ZM7212.91 3921 7226.66 3893.5 7240.41 3921Z" fill="#70AD47"/><path d="M3497.5 419.938 3215.63 419.938 3219.07 416.5 3219.07 5357.26 3215.63 5353.82 6560.51 5353.82 6560.51 5360.69 3212.2 5360.69 3212.2 413.063 3497.5 413.063ZM6555.92 5343.51 6583.42 5357.26 6555.92 5371.01Z" fill="#4472C4"/><path d="M3491.5 605.938 3360.9 605.938 3364.34 602.5 3364.34 5543.26 3360.9 5539.82 6554.51 5539.82 6554.51 5546.69 3357.47 5546.69 3357.47 599.063 3491.5 599.063ZM6549.92 5529.51 6577.42 5543.26 6549.92 5557.01Z" fill="#4472C4"/><text font-family="DengXian,DengXian_MSFontService,sans-serif" font-weight="700" font-size="83" transform="matrix(1 0 0 1 6613.74 5778)">rD1_op<tspan font-size="83" x="2.11279" y="192">rD2_op</tspan><tspan font-size="83" x="0.475098" y="370">rD1_forward</tspan><tspan font-size="83" x="0.475098" y="550">rD2_forward</tspan></text><path d="M0 3.4375-119.166 3.4375-115.729 0-115.729 2646.97-119.166 2643.53 381.475 2643.53 381.475 2650.41-122.604 2650.41-122.604-3.4375 0-3.4375ZM376.892 2633.22 404.392 2646.97 376.892 2660.72Z" fill="#70AD47" transform="matrix(1 -1.22465e-16 -1.22465e-16 -1 6581.5 5751.47)"/><path d="M0 3.4375-292.021 3.4375-288.583 0-288.583 2698.48-292.021 2695.04 376.002 2695.04 376.002 2701.92-295.458 2701.92-295.458-3.4375 0-3.4375ZM371.419 2684.73 398.919 2698.48 371.419 2712.23Z" fill="#70AD47" transform="matrix(1 -1.22465e-16 -1.22465e-16 -1 6583.5 5943.98)"/><path d="M0 3.4375-480.598 3.4375-477.16 0-477.16 2718.3-480.598 2714.87 386.123 2714.87 386.123 2721.74-484.035 2721.74-484.035-3.4375 0-3.4375ZM381.54 2704.55 409.04 2718.3 381.54 2732.05Z" fill="#70AD47" transform="matrix(1 -1.22465e-16 -1.22465e-16 -1 6581.5 6121.8)"/><path d="M0 3.4375-742.502 3.4375-739.064 0-739.064 2737.4-742.502 2733.96 380.968 2733.96 380.968 2740.84-745.939 2740.84-745.939-3.4375 0-3.4375ZM376.383 2723.65 403.883 2737.4 376.383 2751.15Z" fill="#70AD47" transform="matrix(1 -1.22465e-16 -1.22465e-16 -1 6581.5 6300.9)"/><text font-family="DengXian,DengXian_MSFontService,sans-serif" font-weight="700" font-size="83" transform="matrix(1 0 0 1 11578 5161)">npc_op</text><path d="M9449.52-493.5 9449.52 2294.27 9441.5 2294.27 9444.94 2290.84 9444.94 5052.28 9438.06 5052.28 9438.06 2287.4 9446.08 2287.4 9442.65 2290.84 9442.65-493.5ZM9455.25 5047.67 9441.5 5075.17 9427.75 5047.67Z" fill="#70AD47"/><text font-family="DengXian,DengXian_MSFontService,sans-serif" font-weight="700" font-size="83" transform="matrix(1 0 0 1 7638.32 5159)">rR1_ID<tspan font-size="83" x="357.216" y="-2">rR2_ID</tspan><tspan font-size="83" x="1179.53" y="5">wR_EX</tspan></text><path d="M0-3.4375 1101.39-3.4375 1101.39 689.432 1097.95 685.994 1418.7 685.994 1418.7 692.869 1094.51 692.869 1094.51 0 1097.95 3.4375 0 3.4375ZM1414.12 675.682 1441.62 689.432 1414.12 703.182Z" fill="#70AD47" transform="matrix(1.83697e-16 1 1 -1.83697e-16 8249.5 3629.5)"/><text font-family="DengXian,DengXian_MSFontService,sans-serif" font-weight="700" font-size="83" transform="matrix(1 0 0 1 12144.5 5818)">wR_MEM<tspan font-size="83" x="73.6445" y="181">wR_WB</tspan><tspan font-size="83" x="-1144.55" y="-661">wD_EX</tspan><tspan font-size="83" x="2.66113" y="362">wD_MEM</tspan><tspan font-size="83" x="72.582" y="522">wD_WB</tspan></text><path d="M9545.5 6569.5 9594.5 6489.5 9643.5 6569.5Z" stroke="#000000" stroke-width="4.58333" stroke-miterlimit="8" fill="#FFFFFF" fill-rule="evenodd"/><text font-family="DengXian,DengXian_MSFontService,sans-serif" font-weight="700" font-size="83" transform="matrix(1 0 0 1 9519.48 6469)">CLK<tspan font-size="73" x="-9414.88" y="-6084">32bit</tspan><tspan font-size="73" x="-7895.43" y="-5430">pc_IF</tspan><tspan font-size="73" x="-9813.53" y="-4795">32bit</tspan><tspan font-size="73" x="-9430.69" y="-5806">32bit</tspan><tspan font-size="73" x="-8231.21" y="-6073">32bit</tspan><tspan font-size="73" x="-9430.92" y="-4794">32bit</tspan><tspan font-size="73" x="-10735.4" y="-4795">32bit</tspan><tspan font-size="73" x="-7352.44" y="-5361">32bit</tspan><tspan font-size="73" x="-6303.5" y="-6572">32bit</tspan><tspan font-size="73" x="-4805.3" y="-3526">32bit</tspan><tspan font-size="73" x="-3799.38" y="-3337">32bit</tspan><tspan font-size="73" x="-4622.12" y="-3153">32bit</tspan><tspan font-size="73" x="-25.627" y="-4136">32bit</tspan><tspan font-size="73" x="415.077" y="-4796">32bit</tspan><tspan font-size="73" x="1320.73" y="-4141">32bit</tspan><tspan font-size="73" x="-3168.85" y="-206">32bit</tspan><tspan font-size="73" x="-3160.97" y="-387">32bit</tspan><tspan font-size="73" x="-1636.85" y="-1592">32bit</tspan><tspan font-size="73" x="-1992.39" y="-1749">32bit</tspan><tspan font-size="73" x="3112.35" y="-193">32bit</tspan><tspan font-size="73" x="3119.85" y="-355">32bit</tspan><tspan font-size="73" x="2150.67" y="-5441">32bit</tspan><tspan font-size="73" x="2598.74" y="-5449">32bit</tspan><tspan font-size="73" x="1859.37" y="-6643">32bit</tspan><tspan font-size="73" x="-8639.98" y="-6415">npc_op</tspan><tspan font-size="73" x="-8400.5" y="-6415">, </tspan><tspan font-size="73" x="-8576.39" y="-6327">1bit</tspan><tspan font-size="73" x="-2888.99" y="-7008">wd_sel_ID</tspan><tspan font-size="73" x="-2887.57" y="-6794">alu_op_ID</tspan><tspan font-size="73" x="-2934.26" y="-6612">alub_sel_ID</tspan><tspan font-size="73" x="-2848.61" y="-6420">rf_we_ID</tspan><tspan font-size="73" x="-2966.06" y="-6224">dram_we_ID</tspan><tspan font-size="73" x="-2906.34" y="-6025">branch_ID</tspan><tspan font-size="73" x="-2847.45" y="-5837">jump_ID</tspan><tspan font-size="73" x="-1484.27" y="-7008">wd_sel_EX</tspan><tspan font-size="73" x="-1482.35" y="-6801">alu_op_EX</tspan><tspan font-size="73" x="-1483.19" y="-6619">alub_sel_EX</tspan><tspan font-size="73" x="-1484.63" y="-6427">rf_we_EX</tspan><tspan font-size="73" x="-1480.05" y="-6231">dram_we_EX</tspan><tspan font-size="73" x="-1489.65" y="-6032">branch_EX</tspan><tspan font-size="73" x="-1489.78" y="-5844">jump_EX</tspan><tspan font-size="73" x="4067.15" y="-7008">wd_sel_EX</tspan><tspan font-size="73" x="4096.09" y="-6794">rf_we_EX</tspan><tspan font-size="73" x="3974.27" y="-5447">dram_we_EX</tspan><tspan font-size="73" x="-7949.97" y="-5802">pc4_IF</tspan><tspan font-size="73" x="-6819.56" y="-5802">pc4_ID</tspan><tspan font-size="73" x="-7357.15" y="-4718">32bit</tspan><tspan font-size="73" x="-7352.7" y="-5728">32bit</tspan><tspan font-size="73" x="-6815.08" y="-5430">pc_ID</tspan><tspan font-size="73" x="-7959.76" y="-4779">inst_IF</tspan><tspan font-size="73" x="-6815.11" y="-4792">inst_ID</tspan><tspan font-size="73" x="-2100.76" y="-6949">2bit</tspan><tspan font-size="73" x="-2103.37" y="-6738">4bit</tspan><tspan font-size="73" x="-2092.71" y="-6543">1bit</tspan><tspan font-size="73" x="-2082.23" y="-6355">1bit</tspan><tspan font-size="73" x="-2100.76" y="-6200">1bit</tspan><tspan font-size="73" x="-2092.99" y="-5972">1bit</tspan><tspan font-size="73" x="-2092.99" y="-5762">1bit</tspan><tspan font-size="73" x="-2141.43" y="-5419">32bit</tspan><tspan font-size="73" x="-2130.79" y="-5021">32bit</tspan><tspan font-size="73" x="-2126.3" y="-4414">32bit</tspan><tspan font-size="73" x="-2110.89" y="-3806">32bit</tspan><tspan font-size="73" x="-2110.15" y="-3576">32bit</tspan><tspan font-size="73" x="-2782.48" y="-5483">pc4_ID</tspan><tspan font-size="73" x="-1486.51" y="-5486">pc4_EX</tspan><tspan font-size="73" x="-2797.07" y="-5094">rD1_ID</tspan><tspan font-size="73" x="-1479.25" y="-5102">rD1_EX</tspan><tspan font-size="73" x="-2800.06" y="-4484">rD2_ID</tspan><tspan font-size="73" x="-1481.88" y="-4496">rD2_EX</tspan><tspan font-size="73" x="-2101.02" y="-4020">5bit</tspan><tspan font-size="73" x="-3184.01" y="-4099">wR_ID</tspan><tspan font-size="73" x="-2958.28" y="-4099">= </tspan><tspan font-size="73" x="-2887.24" y="-4099">inst</tspan><tspan font-size="73" x="-2767.5" y="-4099">[11:7]</tspan><tspan font-size="73" x="-2708.49" y="-4011">5bit</tspan><tspan font-size="73" x="-1469.69" y="-4091">wR_EX</tspan><tspan font-size="73" x="-2823.52" y="-3876">imm_ID</tspan><tspan font-size="73" x="-1477.31" y="-3888">imm_EX</tspan><tspan font-size="73" x="-2929.77" y="-3622">pc_imm_ID</tspan><tspan font-size="73" x="-1479.95" y="-3624">pc_imm_EX</tspan><tspan font-size="83" x="1387.71" y="-5011">1+1bit</tspan><tspan font-size="83" x="2489.44" y="-6653">1bit</tspan><tspan font-size="83" x="4859.8" y="-6932">2bit</tspan><tspan font-size="83" x="4864.81" y="-6734">1bit</tspan><tspan font-size="73" x="5472.05" y="-7010">wd_sel_MEM</tspan><tspan font-size="73" x="5491.09" y="-6818">rf_we_MEM</tspan><tspan font-size="83" x="4862.79" y="-2782">5bit</tspan><tspan font-size="73" x="5478.82" y="-5434">dram_we_MEM</tspan><tspan font-size="73" x="4876.16" y="-4950">32bit</tspan><tspan font-size="73" x="4100.58" y="-5026">alu_c_EX</tspan><tspan font-size="73" x="5482.15" y="-5028">alu_c_MEM</tspan><tspan font-size="73" x="4846.99" y="-3460">32bit</tspan><tspan font-size="73" x="4154.7" y="-3515">wD_EX</tspan><tspan font-size="73" x="5474.65" y="-3538">wD_temp</tspan><tspan font-size="83" x="4890.83" y="-5438">1bit</tspan><tspan font-size="73" x="4844.89" y="-2525">32bit</tspan><tspan font-size="73" x="4164.17" y="-2883">wR_EX</tspan><tspan font-size="73" x="5487.64" y="-2860">wR_MEM</tspan><tspan font-size="73" x="4169.15" y="-2597">rD2_EX</tspan><tspan font-size="73" x="5485.65" y="-2601">rD2_MEM</tspan><tspan font-size="73" x="6068.58" y="-4643">32bit</tspan><tspan font-size="73" x="6060.16" y="-4022">32bit</tspan><tspan font-size="73" x="8751.37" y="-4804">rf_we_MEM</tspan><tspan font-size="73" x="8801.73" y="-4120">wD_MEM</tspan><tspan font-size="73" x="8795.89" y="-3741">wR_MEM</tspan><tspan font-size="73" x="10037" y="-4816">rf_we_WB</tspan><tspan font-size="83" x="9498.11" y="-4802">1bit</tspan><tspan font-size="73" x="9501.34" y="-4119">32bit</tspan><tspan font-size="83" x="9505.34" y="-3688">5bit</tspan><tspan font-size="73" x="10041.9" y="-4121">wD_WB</tspan><tspan font-size="73" x="10047.6" y="-3722">wR_WB</tspan><tspan font-size="73" x="-8228.65" y="-5799">32bit</tspan><tspan font-size="73" x="-4015" y="-1154">1bit</tspan><tspan font-size="73" x="-4010.76" y="-964">1bit</tspan><tspan font-size="73" x="-3137.84" y="-568">1bit</tspan><tspan font-size="73" x="-3127.03" y="-751">1bit</tspan><tspan font-size="73" x="-2216.87" y="-2406">1bit</tspan><tspan font-size="83" x="-7726.52" y="-3951">1bit</tspan><tspan font-size="83" x="-6983.02" y="-3952">1bit</tspan><tspan font-size="73" x="-768.351" y="-1791">5bit</tspan><tspan font-size="73" x="-1219.78" y="-1786">1bit</tspan><tspan font-size="73" x="8.03418" y="-1504">2bit</tspan><tspan font-size="73" x="1697.68" y="-1456">5bit</tspan><tspan font-size="73" x="2252.12" y="-1475">1bit</tspan><tspan font-size="73" x="3129.8" y="-1141">1bit</tspan><tspan font-size="73" x="3132.69" y="-934">1bit</tspan><tspan font-size="73" x="3132.69" y="-725">5bit</tspan><tspan font-size="73" x="3132.69" y="-557">5bit</tspan><tspan font-size="73" x="2243.02" y="-8507">rf_we_WB</tspan><tspan font-size="83" x="2229.1" y="-8193">npc_op</tspan><tspan font-size="73" x="-6221.36" y="-6090">1bit</tspan><tspan font-size="73" x="-6217.13" y="-5900">1bit</tspan><tspan font-size="73" x="-4768.27" y="-7018">2bit</tspan><tspan font-size="73" x="-4770.89" y="-6807">4bit</tspan><tspan font-size="73" x="-4760.22" y="-6612">1bit</tspan><tspan font-size="73" x="-4749.74" y="-6424">1bit</tspan><tspan font-size="73" x="-4768.27" y="-6269">1bit</tspan><tspan font-size="73" x="-4760.5" y="-6042">1bit</tspan><tspan font-size="73" x="-4760.5" y="-5831">1bit</tspan><tspan font-size="83" x="-5307.92" y="-5327">3bit</tspan><tspan font-size="73" x="-3267.52" y="-5097">32bit</tspan><tspan font-size="73" x="-3274.46" y="-4492">32bit</tspan><tspan font-size="83" x="-4813.84" y="-5071">Inst_ID</tspan>[19:15]<tspan font-size="83" x="-4447.74" y="-4972">5bit</tspan><tspan font-size="83" x="-4807.6" y="-4777">Inst_ID</tspan><tspan font-size="83" x="-4552.65" y="-4777">[24:20]</tspan><tspan font-size="83" x="-4441.5" y="-4678">5bit</tspan><tspan font-size="73" x="-4490.28" y="-3023">pc_ID</tspan><tspan font-size="73" x="-4554.76" y="-3533">imm_ID</tspan><tspan font-size="73" x="-8097.82" y="-4657">32bit</tspan></text></g></svg>